HIERARCHY
ROOT Hips
{
	OFFSET -0.001795 -0.223333 0.028219
	CHANNELS 6 Xposition Yposition Zposition Zrotation Yrotation Xrotation 
	JOINT LeftUpLeg
	{
		OFFSET 0.069520 -0.091406 -0.006815
		CHANNELS 3 Zrotation Yrotation Xrotation
		JOINT LeftLeg
		{
			OFFSET 0.034277 -0.375199 -0.004496
			CHANNELS 3 Zrotation Yrotation Xrotation
			JOINT LeftFoot
			{
				OFFSET -0.013596 -0.397961 -0.043693
				CHANNELS 3 Zrotation Yrotation Xrotation
				JOINT LeftToe
				{
					OFFSET 0.026358 -0.055791 0.119288
					CHANNELS 3 Zrotation Yrotation Xrotation
					End Site
					{
						OFFSET 0.000000 0.000000 0.000000
					}
				}
			}
		}
	}
	JOINT RightUpLeg
	{
		OFFSET -0.067670 -0.090522 -0.004320
		CHANNELS 3 Zrotation Yrotation Xrotation
		JOINT RightLeg
		{
			OFFSET -0.038290 -0.382569 -0.008850
			CHANNELS 3 Zrotation Yrotation Xrotation
			JOINT RightFoot
			{
				OFFSET 0.015774 -0.398415 -0.042312
				CHANNELS 3 Zrotation Yrotation Xrotation
				JOINT RightToe
				{
					OFFSET -0.025372 -0.048144 0.123348
					CHANNELS 3 Zrotation Yrotation Xrotation
					End Site
					{
						OFFSET 0.000000 0.000000 0.000000
					}
				}
			}
		}
	}
	JOINT Spine
	{
		OFFSET -0.002533 0.108963 -0.026696
		CHANNELS 3 Zrotation Yrotation Xrotation
		JOINT Spine1
		{
			OFFSET 0.005487 0.135180 0.001092
			CHANNELS 3 Zrotation Yrotation Xrotation
			JOINT Spine2
			{
				OFFSET 0.001457 0.052922 0.025425
				CHANNELS 3 Zrotation Yrotation Xrotation
				JOINT Neck
				{
					OFFSET -0.002778 0.213870 -0.042857
					CHANNELS 3 Zrotation Yrotation Xrotation
					JOINT Head
					{
						OFFSET 0.005152 0.064970 0.051349
						CHANNELS 3 Zrotation Yrotation Xrotation
						End Site
						{
							OFFSET 0.000000 0.000000 0.000000
						}
					}
				}
				JOINT LeftShoulder
				{
					OFFSET 0.078845 0.121749 -0.034090
					CHANNELS 3 Zrotation Yrotation Xrotation
					JOINT LeftArm
					{
						OFFSET 0.090977 0.030469 -0.008868
						CHANNELS 3 Zrotation Yrotation Xrotation
						JOINT LeftForeArm
						{
							OFFSET 0.259612 -0.012772 -0.027456
							CHANNELS 3 Zrotation Yrotation Xrotation
							JOINT LeftHand
							{
								OFFSET 0.249234 0.008986 -0.001171
								CHANNELS 3 Zrotation Yrotation Xrotation
								End Site
								{
									OFFSET 0.000000 0.000000 0.000000
								}
							}
						}
					}
				}
				JOINT RightShoulder
				{
					OFFSET -0.081759 0.118833 -0.038615
					CHANNELS 3 Zrotation Yrotation Xrotation
					JOINT RightArm
					{
						OFFSET -0.096012 0.032551 -0.009143
						CHANNELS 3 Zrotation Yrotation Xrotation
						JOINT RightForeArm
						{
							OFFSET -0.253742 -0.013329 -0.021401
							CHANNELS 3 Zrotation Yrotation Xrotation
							JOINT RightHand
							{
								OFFSET -0.255298 0.007772 -0.005559
								CHANNELS 3 Zrotation Yrotation Xrotation
								End Site
								{
									OFFSET 0.000000 0.000000 0.000000
								}
							}
						}
					}
				}
			}
		}
	}
}
MOTION
Frames: 13
Frame Time: 0.050000
0.000000 0.944324 0.000000 -1.480871 2.039884 4.821028 -0.647411 0.184729 1.747320 0.896640 0.191742 -6.950283 -4.985681 -5.006404 9.034001 0.000000 0.000000 0.000000 2.828809 -0.093725 0.020803 -2.723342 -0.085771 -5.905336 7.747446 12.866633 8.730068 0.000000 0.000000 0.000000 2.986264 0.076367 -2.315637 -0.051091 -0.126025 4.124151 -1.866559 1.210596 1.606586 4.056560 -0.723037 -18.259965 0.000000 0.000000 0.000000 -29.361701 -7.985126 1.014651 -18.998181 8.083429 -2.792772 13.193703 -9.114578 -0.697546 0.000000 0.000000 0.000000 26.431344 4.816461 1.323295 27.418126 -7.860783 -4.061735 -9.769237 18.439138 -0.738004 0.000000 0.000000 0.000000 
-0.000020 0.942860 0.002059 -1.729559 1.762331 5.182544 -0.081584 0.152690 1.658430 0.308239 0.226270 -7.199515 -4.746877 -4.859159 8.579622 0.000000 0.000000 0.000000 2.473541 -0.002785 -0.648842 -1.634632 -0.107920 -5.205640 7.755644 13.194550 8.269444 0.000000 0.000000 0.000000 3.635955 0.045700 -2.012996 -0.884725 0.281647 5.130811 -2.040063 1.652292 0.409495 4.678918 -0.649641 -21.266000 0.000000 0.000000 0.000000 -27.714100 -9.247615 1.738169 -20.698309 9.054566 -3.147084 14.195668 -7.059056 -0.600048 0.000000 0.000000 0.000000 27.394488 2.841304 0.102479 27.735528 -9.109457 -4.310305 -10.910952 19.731548 -0.963879 0.000000 0.000000 0.000000 
0.000036 0.941487 0.004153 -1.753090 1.880653 4.941138 0.446986 0.158478 1.995849 -0.562474 0.258235 -7.078873 -4.733637 -5.076685 8.123115 0.000000 0.000000 0.000000 2.646279 -0.095679 0.068000 -1.872780 -0.123898 -5.743149 7.634096 13.214207 7.898519 0.000000 0.000000 0.000000 4.407311 0.021142 -1.763708 -1.124798 0.456558 3.084403 -2.657133 1.825953 2.450766 5.201794 -1.061756 -20.197101 0.000000 0.000000 0.000000 -26.485024 -9.664435 2.009149 -21.867423 10.728225 -3.651537 13.138687 -7.961286 -0.615371 0.000000 0.000000 0.000000 27.319027 4.203486 1.218108 28.043311 -10.175810 -4.693973 -10.500335 19.895576 -0.906105 0.000000 0.000000 0.000000 
0.000020 0.941012 0.006339 -2.023459 1.613157 4.938774 0.653909 0.180168 2.365942 -0.460919 0.264533 -7.428438 -4.558261 -4.888204 7.926491 0.000000 0.000000 0.000000 2.581010 -0.127428 0.328354 -1.267914 -0.171515 -5.994128 7.839344 13.515581 8.063473 0.000000 0.000000 0.000000 4.753050 0.012472 -1.704434 -1.633889 0.712540 3.351405 -2.072377 2.216940 1.959095 4.992056 -0.765139 -21.473894 0.000000 0.000000 0.000000 -27.420090 -9.905458 2.049872 -21.490097 12.156063 -3.744792 13.570312 -6.837049 -0.549387 0.000000 0.000000 0.000000 27.596380 4.177703 1.218159 27.330576 -12.096514 -4.877977 -10.666677 20.377191 -0.963875 0.000000 0.000000 0.000000 
0.000113 0.940572 0.008388 -1.882341 1.570477 4.912277 0.389778 0.224123 2.726303 -0.281020 0.267396 -7.757853 -4.555343 -4.894272 7.910430 0.000000 0.000000 0.000000 2.405431 -0.172953 0.751077 -1.243829 -0.196542 -6.451120 7.861110 13.596268 8.012790 0.000000 0.000000 0.000000 5.043497 0.014330 -1.763484 -1.676146 0.727916 3.749776 -2.468772 2.176065 1.110973 5.417786 -1.122214 -20.304726 0.000000 0.000000 0.000000 -28.224853 -10.137141 2.103287 -20.692399 13.403507 -3.708219 13.226727 -7.076812 -0.546449 0.000000 0.000000 0.000000 27.191386 4.079509 1.136845 27.324881 -12.782281 -4.953833 -10.164682 20.743602 -0.905855 0.000000 0.000000 0.000000 
0.000418 0.939781 0.010201 -1.827501 1.450384 4.748656 -0.042450 0.280254 3.101464 0.321581 0.249257 -7.858436 -4.416715 -4.825039 7.584598 0.000000 0.000000 0.000000 1.812246 -0.201586 1.201306 -0.339229 -0.253381 -6.718405 7.948587 13.800210 7.981377 0.000000 0.000000 0.000000 5.081292 0.011079 -1.693401 -1.763479 0.766133 4.342507 -2.268496 1.784408 0.886003 4.937628 -0.785259 -21.320619 0.000000 0.000000 0.000000 -28.793248 -9.986134 2.180955 -20.796937 13.690653 -3.791356 13.136545 -6.772243 -0.509143 0.000000 0.000000 0.000000 26.816905 4.527320 1.226787 27.029962 -12.765271 -4.839771 -9.771465 20.484450 -0.844856 0.000000 0.000000 0.000000 
0.000953 0.939698 0.011643 -1.717584 0.964003 4.767953 -0.247416 0.304855 3.233781 0.289745 0.252458 -7.868376 -4.210931 -4.490086 7.584767 0.000000 0.000000 0.000000 1.653718 -0.237874 1.563061 -0.437762 -0.273538 -7.296142 8.226180 14.187764 8.202706 0.000000 0.000000 0.000000 5.143416 -0.002517 -1.526937 -1.918082 0.860134 4.006825 -2.117851 1.934731 1.067255 4.960471 -0.836314 -21.141268 0.000000 0.000000 0.000000 -29.267511 -9.926029 2.182500 -20.542718 13.990612 -3.784900 12.569388 -6.676779 -0.466443 0.000000 0.000000 0.000000 26.545410 4.644420 1.266451 26.301015 -12.888535 -4.706009 -9.028125 20.378037 -0.728124 0.000000 0.000000 0.000000 
0.001753 0.939267 0.012883 -1.738303 0.497086 4.807547 -0.626152 0.333531 3.306242 0.789804 0.234228 -7.843603 -3.922210 -4.124773 7.343982 0.000000 0.000000 0.000000 1.353132 -0.241141 1.712251 -0.050832 -0.298671 -7.553411 8.478910 14.590784 8.332913 0.000000 0.000000 0.000000 5.290501 -0.020155 -1.340549 -2.098159 0.961078 4.029459 -1.983359 1.857665 1.067226 4.597092 -0.702323 -20.960776 0.000000 0.000000 0.000000 -29.718579 -9.756104 2.202067 -20.346364 14.297879 -3.800105 12.226925 -7.051792 -0.469520 0.000000 0.000000 0.000000 26.651680 5.032538 1.381726 25.201839 -12.638483 -4.414907 -8.810748 20.110441 -0.693599 0.000000 0.000000 0.000000 
0.002733 0.939629 0.013837 -1.729476 -0.068079 4.952059 -0.865661 0.361878 3.447048 0.936247 0.243902 -8.175910 -3.730048 -3.695623 7.589769 0.000000 0.000000 0.000000 1.043130 -0.234033 1.780874 0.249229 -0.321812 -7.932480 8.861254 14.993072 8.800387 0.000000 0.000000 0.000000 5.353578 -0.029998 -1.255010 -2.211233 1.028896 4.174590 -1.799204 1.918559 0.844724 4.434440 -0.661753 -20.771917 0.000000 0.000000 0.000000 -29.757317 -9.760427 2.306982 -20.760743 14.613575 -3.941542 12.107498 -7.535193 -0.494020 0.000000 0.000000 0.000000 26.607709 5.436721 1.534775 24.330235 -12.820404 -4.236147 -8.690645 20.310448 -0.691638 0.000000 0.000000 0.000000 
0.003744 0.939381 0.014606 -1.789061 -0.160762 5.024685 -0.814672 0.364545 3.498984 0.814336 0.253930 -8.299538 -3.687072 -3.651552 7.537093 0.000000 0.000000 0.000000 0.880361 -0.222465 1.750246 0.517688 -0.330974 -7.939991 8.916409 15.083774 8.825766 0.000000 0.000000 0.000000 5.432937 -0.039763 -1.175111 -2.195377 1.020955 4.535435 -1.778457 1.766855 0.625512 4.361960 -0.700296 -20.257338 0.000000 0.000000 0.000000 -30.053999 -9.790432 2.394270 -20.852382 14.549976 -3.956681 12.282411 -8.100105 -0.543731 0.000000 0.000000 0.000000 26.598727 6.048141 1.841968 23.689088 -13.182689 -4.134833 -9.057293 20.286198 -0.754429 0.000000 0.000000 0.000000 
0.004744 0.938973 0.015297 -1.802409 -0.312983 5.130605 -0.899395 0.367426 3.475146 0.826776 0.256101 -8.353382 -3.589953 -3.550198 7.410690 0.000000 0.000000 0.000000 0.554563 -0.178225 1.490600 0.977067 -0.335591 -7.615216 8.937708 15.227646 8.687882 0.000000 0.000000 0.000000 5.479163 -0.026659 -1.349834 -2.211857 1.031517 4.880896 -1.861101 1.720388 0.489274 4.406698 -0.744412 -20.152241 0.000000 0.000000 0.000000 -30.090902 -10.190049 2.699812 -21.112143 14.635393 -4.028034 12.432325 -8.832292 -0.606923 0.000000 0.000000 0.000000 26.981527 6.348526 1.988080 22.518486 -13.597183 -3.938553 -9.118642 20.235753 -0.766532 0.000000 0.000000 0.000000 
0.005577 0.938490 0.016123 -1.873791 -0.249758 4.967695 -0.844187 0.384758 3.686614 0.785864 0.255739 -8.314124 -3.573622 -3.628860 7.180612 0.000000 0.000000 0.000000 0.603293 -0.191257 1.593191 0.941544 -0.326754 -7.362653 8.828622 15.233915 8.392355 0.000000 0.000000 0.000000 5.484123 -0.039525 -1.172017 -2.253470 1.052049 5.024717 -1.899053 1.771150 0.570632 4.222164 -0.706495 -19.551642 0.000000 0.000000 0.000000 -30.344674 -10.621588 2.948356 -21.145928 14.329094 -3.991972 12.703445 -9.806477 -0.702389 0.000000 0.000000 0.000000 27.390464 6.610597 2.194522 21.998482 -14.376689 -3.943250 -8.802385 20.688690 -0.739074 0.000000 0.000000 0.000000 
0.006294 0.938388 0.017179 -1.971185 -0.220272 4.670158 -0.871577 0.408762 3.920966 0.954313 0.237174 -8.023101 -3.524847 -3.651862 6.946007 0.000000 0.000000 0.000000 0.673122 -0.210712 1.747532 0.920645 -0.312481 -6.917425 8.755433 15.266878 8.156813 0.000000 0.000000 0.000000 5.488231 -0.066952 -0.801847 -2.229969 1.038657 5.474309 -2.047245 1.585655 0.305711 4.035461 -0.638453 -19.323388 0.000000 0.000000 0.000000 -30.477893 -10.920085 3.188300 -21.534399 13.754699 -4.000607 12.770551 -10.664506 -0.772691 0.000000 0.000000 0.000000 27.471199 6.996132 2.385878 21.887091 -14.946441 -3.979380 -8.763608 20.677400 -0.735792 0.000000 0.000000 0.000000 
